HIERARCHY
ROOT pelvis
{
  OFFSET 0 100 0
  CHANNELS 6 Xposition Yposition Zposition Zrotation Xrotation Yrotation
  JOINT pelvis_right_femur
  {
    OFFSET -10.78128 -3.44521 -0.5502486
    CHANNELS 3 Zrotation Xrotation Yrotation
    JOINT right_femur_tibia
    {
      OFFSET -0.8047443 -44.0398 -0.1307829
      CHANNELS 3 Zrotation Xrotation Yrotation
      JOINT right_tibia_foot
      {
        OFFSET 3.006224 -47.83518 -5
        CHANNELS 3 Zrotation Xrotation Yrotation
        End Site
        {
          OFFSET 0 -5 15
        }
      }
    }
  }
  JOINT pelvis_left_femur
  {
    OFFSET 10.78128 -3.44521 -0.5502486
    CHANNELS 3 Zrotation Xrotation Yrotation
    JOINT left_femur_tibia
    {
      OFFSET 0.8047443 -44.0398 -0.1307829
      CHANNELS 3 Zrotation Xrotation Yrotation
      JOINT left_tibia_foot
      {
        OFFSET -4.370144 -48.10324 -4.275266
        CHANNELS 3 Zrotation Xrotation Yrotation
        End Site
        {
          OFFSET 0 -5 15
        }
      }
    }
  }
  JOINT pelvis_spine1
  {
    OFFSET 0 6.468898 -3.129235
    CHANNELS 3 Zrotation Xrotation Yrotation
    JOINT spine1
    {
      OFFSET 0 23.15396 4.99043
      CHANNELS 3 Zrotation Xrotation Yrotation
      JOINT spine2
      {
        OFFSET 0 20.79997 -5.064912
        CHANNELS 3 Zrotation Xrotation Yrotation
        JOINT neck
        {
          OFFSET 0 14.38658 9.616178
          CHANNELS 3 Zrotation Xrotation Yrotation
          End Site
          {
            OFFSET 0 20 0
          }
        }
      }
      JOINT right_manubrium
      {
        OFFSET -5.722621 16.35077 3.967754
        CHANNELS 3 Zrotation Xrotation Yrotation
        JOINT right_clavicle
        {
          OFFSET -13.16364 1.694482 -4.693211
          CHANNELS 3 Zrotation Xrotation Yrotation
          JOINT right_humerus
          {
            OFFSET -28.5034 -0.3100689 -2.792744
            CHANNELS 3 Zrotation Xrotation Yrotation
            JOINT right_radius
            {
              OFFSET -25.15693 0.02248979 -1.271978
              CHANNELS 3 Zrotation Xrotation Yrotation
              End Site
              {
                OFFSET -15 0 0
              }
            }
          }
        }
      }
      JOINT left_manubrium
      {
        OFFSET 5.722621 16.35077 3.967754
        CHANNELS 3 Zrotation Xrotation Yrotation
        JOINT left_clavicle
        {
          OFFSET 13.16364 1.694482 -4.693211
          CHANNELS 3 Zrotation Xrotation Yrotation
          JOINT left_humerus
          {
            OFFSET 29.39168 -1.063119 -2.237045
            CHANNELS 3 Zrotation Xrotation Yrotation
            JOINT left_radius
            {
              OFFSET 24.59957 -0.9528479 0.9047498
              CHANNELS 3 Zrotation Xrotation Yrotation
              End Site
              {
                OFFSET 15 -0 -0
              }
            }
          }
        }
      }
    }
  }
}
MOTION
Frames: 23
Frame Time: 0.0416666666667
23.24295 139.8201 267.4619 0.8890617 -4.652834 -6.643385 0.6657275 6.520271 3.094653 -0 0.5423938 -0 3.673038 -12.31696 -0.3835324 -2.160871 -6.709458 -5.083628 -0 18.4878 -0 -7.721633 -9.880128 15.78256 -1.055275 -2.308635 6.834792 -0.009141551 8.881217 -4.997521 2.038355 21.24645 5.759072 1.787407 -15.46785 7.524215 1.348969 -18.35717 10.412 83.87285 24.46605 -12.78903 -0 0 18.88043 -24.43774 14.65597 12.13241 5.886237 -17.62414 -3.597131 -88.00561 22.27067 15.89856 0 0 -17.45452 -1.231603 7.964944 13.56696
23.1319 139.2938 274.7383 0.8796057 -4.799771 -6.903404 0.5341453 6.645489 3.043299 -0 1.551608 -0 3.768686 -12.87761 -0.4451901 -2.120925 -7.225758 -5.168358 -0 16.76295 -0 -7.633743 -10.35588 15.88874 -1.099207 -2.121406 6.830735 -0.1276574 8.678692 -4.829094 2.113367 21.36255 5.688574 1.672955 -15.33968 7.627861 1.120317 -18.46564 10.28946 83.69306 24.14531 -12.2131 -0 0 19.35881 -24.42546 14.46698 12.1798 5.923506 -17.36093 -3.566249 -88.1099 22.44609 16.02692 0 0 -17.11134 -1.340096 8.042388 13.63832
23.02656 138.665 281.9562 0.8717428 -4.946005 -7.106779 0.4121859 6.653489 2.983858 -0 2.505228 -0 3.792569 -13.40455 -0.5307436 -2.09383 -7.618003 -5.26616 -0 15.12657 -0 -7.525008 -10.84305 15.99004 -1.152314 -1.932256 6.800422 -0.2324903 8.47875 -4.680778 2.188211 21.49128 5.615249 1.563483 -15.21205 7.726409 0.896308 -18.53722 10.1657 83.56131 23.8604 -11.69898 -0 0 19.75324 -24.37534 14.27144 12.20309 5.964256 -17.13147 -3.537445 -88.17817 22.62817 16.07194 0 0 -16.8021 -1.413956 8.148586 13.66537
22.9244 137.9371 289.1098 0.8617477 -5.089951 -7.259585 0.3105477 6.508827 2.91487 -0 3.335301 -0 3.7313 -13.89561 -0.6476173 -2.076839 -7.848594 -5.374718 -0 13.63971 -0 -7.401845 -11.33465 16.08209 -1.210795 -1.741691 6.738281 -0.3181225 8.284233 -4.558604 2.263425 21.63324 5.538023 1.460719 -15.08546 7.817838 0.6794897 -18.5615 10.0423 83.48733 23.61752 -11.27001 -0 0 20.03734 -24.27815 14.07208 12.19347 6.011233 -16.94823 -3.511512 -88.19882 22.8147 16.00831 0 0 -16.54915 -1.444401 8.287371 13.63697
22.81933 137.1139 296.1933 0.8464379 -5.230288 -7.370384 0.2372751 6.187079 2.835451 -0 3.98995 -0 3.575848 -14.34928 -0.801167 -2.067215 -7.89135 -5.491772 -0 12.34904 -0 -7.269764 -11.82442 16.16147 -1.271344 -1.550335 6.640688 -0.3805616 8.097581 -4.466841 2.339352 21.78839 5.456158 1.365992 -14.96049 7.900561 0.472034 -18.53146 9.920766 83.47714 23.42089 -10.94296 -0 0 20.19253 -24.12778 13.87126 12.14487 6.066412 -16.8203 -3.489022 -88.16372 23.00334 15.81863 0 0 -16.3691 -1.425138 8.460939 13.54532
22.70247 136.1993 303.2015 0.8233437 -5.366015 -7.449347 0.1973486 5.676581 2.745553 -0 4.436041 -0 3.322255 -14.76468 -0.9941943 -2.062379 -7.733237 -5.615202 -0 11.28457 -0 -7.133101 -12.30687 16.226 -1.33126 -1.358983 6.506272 -0.4175388 7.920772 -4.407768 2.416092 21.95604 5.369334 1.280186 -14.83781 7.973487 0.2756458 -18.444 9.802537 83.53294 23.27236 -10.72722 -0 0 20.20919 -23.92169 13.6709 12.05437 6.130854 -16.7529 -3.470297 -88.06887 23.19145 15.49474 0 0 -16.2718 -1.352725 8.669571 13.3865
22.56301 135.1976 310.1294 0.7907298 -5.496454 -7.507433 0.1928283 4.978095 2.646007 -0 4.658541 -0 2.971394 -15.14127 -1.226874 -2.060013 -7.374004 -5.743104 -0 10.46028 -0 -6.994957 -12.77727 16.27478 -1.388469 -1.168592 6.335808 -0.4284238 7.755342 -4.381757 2.493492 22.13484 5.277651 1.203787 -14.7182 8.03599 0.09154416 -18.2998 9.688896 83.6535 23.17137 -10.62513 -0 0 20.08623 -23.6608 13.47246 11.92209 6.204743 -16.74753 -3.455427 -87.9145 23.37604 15.03754 0 0 -16.26048 -1.226427 8.91174 13.16019
22.38917 134.1134 316.9729 0.7475394 -5.621234 -7.555688 0.2232949 4.103736 2.538363 -0 4.658277 -0 2.528214 -15.47867 -1.496848 -2.058114 -6.825059 -5.873849 -0 9.876309 -0 -6.857212 -13.23128 16.30825 -1.441463 -0.9802388 6.131962 -0.4140218 7.602481 -4.387453 2.571148 22.32301 5.18162 1.136991 -14.60263 8.087829 -0.07950938 -18.10293 9.580992 83.83476 23.11524 -10.63279 -0 0 19.83001 -23.34916 13.27681 11.75094 6.287489 -16.80242 -3.444311 -87.70486 23.55374 14.45622 0 0 -16.33224 -1.04783 9.184432 12.86924
22.169 132.9513 323.7282 0.6933341 -5.74028 -7.604679 0.2863343 3.076372 2.424594 -0 4.449692 -0 2.000923 -15.7762 -1.799231 -2.055003 -6.108791 -6.006122 -0 9.521074 -0 -6.72052 -13.66462 16.32842 -1.489215 -0.7950834 5.899078 -0.3763972 7.463185 -4.421897 2.648384 22.5184 5.082185 1.079849 -14.49231 8.129042 -0.237162 -17.86057 9.479875 84.07016 23.09958 -10.74061 -0 0 19.45327 -22.99375 13.08421 11.54644 6.377822 -16.91294 -3.436716 -87.44814 23.72086 13.76774 0 0 -16.47824 -0.8204588 9.483518 12.51909
21.89137 131.7167 330.3926 0.6282692 -5.853817 -7.664036 0.3779163 1.930035 2.306735 -0 4.059437 -0 1.400362 -16.0325 -2.126412 -2.049307 -5.258917 -6.138927 -0 9.372904 -0 -6.58422 -14.07243 16.33912 -1.5311 -0.6143399 5.643124 -0.3187982 7.338445 -4.480501 2.724197 22.7187 4.98078 1.032422 -14.38889 8.159846 -0.3814216 -17.58302 9.386584 84.35058 23.11859 -10.93331 -0 0 18.97459 -22.60457 12.89416 11.31684 6.473833 -17.07181 -3.432338 -87.15675 23.87336 12.99709 0 0 -16.68352 -0.5495334 9.804081 12.11749
21.54692 130.415 336.9636 0.5531022 -5.962399 -7.742054 0.4926454 0.7109683 2.186486 -0 3.525736 -0 0.7395947 -16.24509 -2.467734 -2.039944 -4.321463 -6.271581 -0 9.400921 -0 -6.446196 -14.44869 16.34645 -1.566825 -0.4392622 5.371741 -0.2456561 7.229449 -4.55693 2.797192 22.92146 4.879421 0.994928 -14.29459 8.180549 -0.5126171 -17.2839 9.302229 84.66412 23.16535 -11.18969 -0 0 18.41825 -22.19489 12.70524 11.07342 6.572977 -17.2691 -3.430854 -86.84768 24.00702 12.17794 0 0 -16.92636 -0.2418654 10.14067 11.67437
21.12908 129.0525 343.4393 0.4691925 -6.066913 -7.845365 0.6239873 -0.5221519 2.06487 -0 2.897534 -0 0.03357066 -16.41031 -2.809368 -2.026119 -3.354936 -6.403655 -0 9.565993 -0 -6.302835 -14.78592 16.35893 -1.596378 -0.2711323 5.09422 -0.1625397 7.137711 -4.643092 2.86554 23.12417 4.780739 0.9678266 -14.21229 8.191489 -0.6313637 -16.98017 9.228051 84.99589 23.23214 -11.48251 -0 0 17.81387 -21.78133 12.51521 10.83052 6.672085 -17.4924 -3.431974 -86.54257 24.11758 11.35282 0 0 -17.17817 0.09424304 10.48754 11.20167
20.63493 127.636 349.8181 0.3784238 -6.168527 -7.978715 0.7646343 -1.700761 1.942007 -0 2.231977 -0 -0.7014353 -16.52355 -3.134876 -2.007348 -2.427762 -6.534888 -0 9.822762 -0 -6.149266 -15.07533 16.38711 -1.619983 -0.1112288 4.821119 -0.07589453 7.065054 -4.729502 2.927055 23.32435 4.687878 0.9518068 -14.14543 8.19301 -0.7385143 -16.69139 9.165386 85.3285 23.31095 -11.77975 -0 0 17.19518 -21.38313 12.3212 10.60489 6.767508 -17.72735 -3.435477 -86.2666 24.20113 10.57127 0 0 -17.40485 0.4492961 10.83892 10.71291
20.06569 126.1731 356.0987 0.2830067 -6.268536 -8.144885 0.9071183 -2.752756 1.817145 -0 1.589386 -0 -1.448795 -16.58022 -3.426707 -1.983509 -1.611944 -6.66506 -0 10.1234 -0 -5.98002 -15.30773 16.44234 -1.638049 0.03923435 4.563395 0.007520993 7.013407 -4.806161 2.979402 23.51961 4.604184 0.9476455 -14.09763 8.18547 -0.8350823 -16.438 9.115531 85.6434 23.39411 -12.04747 -0 0 16.59724 -21.02036 12.12022 10.41413 6.855422 -17.9589 -3.441223 -86.04602 24.25459 9.885297 0 0 -17.57018 0.8132357 11.18933 10.22224
19.4267 124.672 362.2802 0.1851933 -6.368165 -8.344813 1.044594 -3.611341 1.688945 -0 1.026564 -0 -2.192814 -16.57681 -3.668366 -1.954869 -0.9742473 -6.793888 -0 10.42253 -0 -5.789979 -15.47489 16.53505 -1.651113 0.1791899 4.331203 0.08139654 6.98447 -4.86378 3.020409 23.70779 4.532775 0.9559885 -14.07218 8.169274 -0.9221357 -16.23892 9.079539 85.92303 23.47492 -12.25383 -0 0 16.05278 -20.71145 11.90977 10.27438 6.93226 -18.17292 -3.449141 -85.90466 24.276 9.343055 0 0 -17.6405 1.176328 11.53398 9.743067
18.72688 123.1412 368.362 0.08699656 -6.46837 -8.577865 1.171554 -4.22322 1.55593 -0 0.59065 -0 -2.919961 -16.51186 -3.846483 -1.922071 -0.568049 -6.920955 -0 10.68174 -0 -5.575272 -15.57075 16.67322 -1.659766 0.3077908 4.132787 0.1405624 6.979385 -4.894889 3.048362 23.88705 4.476124 0.9771491 -14.07151 8.144907 -1.000687 -16.10933 9.058052 86.15288 23.5481 -12.37291 -0 0 15.58877 -20.47101 11.6883 10.1983 6.995114 -18.35778 -3.459203 -85.86099 24.26446 8.982941 0 0 -17.58908 1.530031 11.86898 9.286894
17.97782 121.5892 374.3439 -0.009991944 -6.569736 -8.842196 1.28426 -4.55344 1.41692 -0 0.3154934 -0 -3.619637 -16.38627 -3.952087 -1.886073 -0.428533 -7.045725 -0 10.87232 -0 -5.333825 -15.5922 16.86132 -1.664598 0.4244469 3.973834 0.1813901 6.998554 -4.894503 3.062178 24.05591 4.435825 1.010999 -14.09692 8.112943 -1.071606 -16.05936 9.051232 86.32282 23.60984 -12.38705 -0 0 15.22446 -20.30844 11.45533 10.19385 7.041977 -18.50523 -3.471399 -85.92638 24.21986 8.830083 0 0 -17.39873 1.867584 12.19144 8.862461
17.19281 120.0247 380.2263 -0.104664 -6.672463 -9.135116 1.380829 -4.586437 1.271292 -0 0.2209607 -0 -4.284388 -16.20303 -3.980916 -1.848064 -0.5716975 -7.16759 -0 10.9761 -0 -5.065452 -15.53918 17.1002 -1.666143 0.5288159 3.857352 0.2018628 7.041646 -4.860251 3.061433 24.21325 4.412553 1.056973 -14.14858 8.074033 -1.135569 -16.09389 9.058796 86.42758 23.6576 -12.28736 -0 0 14.97085 -20.22783 11.21141 10.26406 7.071798 -18.61067 -3.485762 -86.10496 24.14237 8.895629 0 0 -17.06238 2.184256 12.49944 8.475511
16.38583 118.4557 386.0102 -0.1963675 -6.776423 -9.453411 1.461072 -4.324737 1.119022 -0 0.3143162 -0 -4.909654 -15.96649 -3.933041 -1.809428 -0.995771 -7.285931 -0 10.98486 -0 -4.771587 -15.4145 17.38729 -1.664849 0.6207541 3.783897 0.2014298 7.107769 -4.792198 3.046282 24.35827 4.40617 1.114142 -14.2257 8.028868 -1.193037 -16.21303 9.080145 86.46658 23.68972 -12.07334 -0 0 14.83128 -20.2285 10.95789 10.40753 7.084406 -18.67301 -3.502447 -86.39422 24.03207 9.177876 0 0 -16.58252 2.477393 12.79187 8.12886
15.57073 116.8899 391.6974 -0.2848418 -6.881249 -9.793586 1.526238 -3.787257 0.9605117 -0 0.5924164 -0 -5.493303 -15.68144 -3.812217 -1.771773 -1.683118 -7.400145 -0 10.89954 -0 -4.454821 -15.22354 17.717 -1.661042 0.700237 3.751898 0.1808028 7.195742 -4.692598 3.017322 24.49039 4.415896 1.181329 -14.3267 7.978124 -1.244247 -16.4128 9.114523 86.44361 23.70509 -11.75212 -0 0 14.80223 -20.30584 10.69687 10.61893 7.080396 -18.69448 -3.521924 -86.78584 23.88869 9.663888 0 0 -15.97045 2.746438 13.06828 7.822524
14.7604 115.3347 397.2899 -0.3701572 -6.986416 -10.15204 1.578774 -3.008626 0.7962824 -0 1.043784 -0 -6.03512 -15.35193 -3.625302 -1.737069 -2.601252 -7.509646 -0 10.73001 -0 -4.118368 -14.97423 18.08085 -1.654898 0.7672589 3.757898 0.1418032 7.304444 -4.565798 2.975448 24.60916 4.440481 1.25721 -14.44953 7.922406 -1.289196 -16.68568 9.1612 86.36668 23.70283 -11.33832 -0 0 14.8737 -20.45194 10.43116 10.88943 7.061033 -18.68063 -3.545273 -87.26609 23.71161 10.33066 0 0 -15.24618 2.993106 13.32878 7.55369
13.96602 113.7971 402.7905 -0.4526732 -7.091312 -10.52517 1.622155 -2.039818 0.6265878 -0 1.650148 -0 -6.53636 -14.98027 -3.381875 -1.707845 -3.702624 -7.613809 -0 10.49528 -0 -3.765544 -14.67721 18.46739 -1.646406 0.8217259 3.796662 0.0872992 7.433177 -4.418312 2.921734 24.71414 4.478341 1.340402 -14.59176 7.862182 -1.327613 -17.02088 9.219657 86.24821 23.68211 -10.85436 -0 0 15.02926 -20.65609 10.16449 11.20681 7.028194 -18.64075 -3.574557 -87.81562 23.50003 11.14552 0 0 -14.43909 3.221702 13.57396 7.316486
13.19637 112.284 408.202 -0.5330083 -7.195283 -10.90941 1.66073 -0.949003 0.4510671 -0 2.387553 -0 -6.999399 -14.56617 -3.093946 -1.687355 -4.924128 -7.71193 -0 10.22398 -0 -3.399311 -14.34608 18.86207 -1.635346 0.8633659 3.861217 0.02118271 7.581966 -4.258931 2.857325 24.80485 4.527661 1.429526 -14.75082 7.797731 -1.358939 -17.40451 9.289718 86.10506 23.64203 -10.33098 -0 0 15.24587 -20.90507 9.901712 11.55543 6.98434 -18.58807 -3.613145 -88.40931 23.25336 12.06636 0 0 -13.58861 3.439417 13.80483 7.101755
